<svg fill="none" height="40" viewBox="0 0 25 35" width="30" xmlns="http://www.w3.org/2000/svg"><g fill="#000"><path d="m22.0672 8.1281-.0235-.01384-.0544-.0166c.0219.01848.0493.02919.0779.03044z"/><path d="m22.4111 10.5781-.0263.0074z"/><path d="m22.0735 8.11128c-.0027-.00035-.0054-.00099-.008-.0019-.0001.00177-.0001.00355 0 .00532.003-.00038.0057-.00157.008-.00342z"/><path d="m22.3877 10.5647.0397-.0226.0147-.0083.0134-.0143c-.0252.0109-.0481.0262-.0678.0452z"/><path d="m22.1334 8.1762-.0387-.0369-.0263-.0143c.0141.02493.0374.04332.065.0512z"/><path d="m12.3836 31.9453c-.031.0134-.0581.0343-.0789.0609l.0244-.0157c.0166-.0152.0402-.0332.0545-.0452z"/><path d="m18.0497 30.8309c0-.0351-.0171-.0286-.0129.0959 0-.0101.0041-.0203.006-.0299.0023-.0222.0041-.0439.0069-.066z"/><path d="m17.4617 31.9453c-.031.0134-.0581.0343-.0789.0609l.0245-.0157c.0166-.0152.0401-.0332.0544-.0452z"/><path d="m8.39845 32.2145c-.02349-.0204-.05226-.0338-.08302-.0387.02491.012.04981.024.06642.0332z"/><path d="m7.50541 31.3533c-.00368-.0363-.01483-.0715-.03275-.1033.01269.0331.02332.067.03182.1015z"/></g><path d="m13.5278 15.9814c-1.2315.5272-2.6291 1.125-4.44044 1.125-.75773-.0016-1.51178-.1055-2.24166-.3091l1.25275 12.8619c.04434.5376.28924 1.0388.68607 1.4042.39682.3654.91654.5682 1.45598.5681 0 0 1.7762.0922 2.3689.0922.638 0 2.5507-.0922 2.5507-.0922.5394 0 1.059-.2029 1.4557-.5682.3967-.3654.6416-.8666.6859-1.4041l1.3418-14.2129c-.5996-.2048-1.2048-.3408-1.887-.3408-1.1798-.0005-2.1305.4059-3.2287.8759z" fill="#fd0"/><path d="m2.96582 10.5039.02122.0198.01384.0083c-.01066-.0105-.02241-.02-.03506-.0281z" fill="#000"/><path d="m24.4376 9.31226-.1886-.95155c-.1693-.85377-.5535-1.66049-1.4299-1.96907-.2809-.0987-.5996-.14114-.815-.34547s-.2791-.52167-.3289-.81594c-.0922-.54013-.1789-1.08071-.2735-1.6199-.0816-.46356-.1462-.98431-.3589-1.40958-.2767-.57102-.851-.90496-1.422-1.1259-.2926-.109228-.5912-.201628-.8943-.276749-1.4267-.376378-2.9266-.514752-4.3943-.593625-1.7617-.097207-3.528-.06792-5.28547.087637-1.3081.119001-2.68584.262911-3.9289.715397-.45433.16559-.9225.36438-1.26797.71539-.42389.43127-.56226 1.09823-.25276 1.63604.22001.38192.5927.65175.98799.83025.51488.23 1.0526.40501 1.60422.52213 1.53595.33948 3.12679.47278 4.69599.52951 1.7392.0702 3.4812.01331 5.2121-.1702.428-.04704.8553-.10347 1.2818-.16927.5023-.07703.8247-.73385.6766-1.19141-.1771-.54703-.6531-.75921-1.1914-.67665-.0793.01246-.1582.02399-.2375.03552l-.0572.0083c-.1824.02307-.3647.04459-.5471.06458-.3766.04059-.7543.0738-1.1328.09963-.8478.05904-1.6978.08625-2.5475.08763-.8348 0-1.6701-.02352-2.50314-.07841-.38007-.02491-.75922-.05658-1.13744-.09502-.17205-.01798-.34363-.03689-.51521-.05811l-.16329-.02076-.03551-.00507-.16928-.02445c-.34593-.05212-.69187-.11208-1.03412-.1845-.03453-.00766-.06542-.02687-.08756-.05446s-.03421-.06191-.03421-.09729c0-.03537.01207-.06969.03421-.09728s.05303-.04681.08756-.05447h.00646c.29658-.06319.59547-.11715.89528-.1642.09994-.01568.20018-.03106.30074-.04613h.00276c.18773-.01245.37638-.04612.56319-.06826 1.62526-.16906 3.26026-.22669 4.89336-.17251.7929.02307 1.5853.06965 2.3745.14991.1697.01753.3386.03598.5074.05673.0646.00784.1296.01707.1946.02491l.131.01891c.3819.05689.7618.12592 1.1398.2071.5599.12177 1.279.16144 1.5281.7749.0793.19464.1153.41097.1591.6153l.0558.2606c.0015.00468.0025.00946.0032.0143.132.615.264 1.22999.3963 1.84499.0096.04543.0099.09237.0006.1379-.0092.04552-.0278.08865-.0544.12669-.0267.03804-.0609.07018-.1005.09442-.0397.02423-.0839.04004-.1299.04643h-.0037l-.0807.01107-.0798.01061c-.2527.0329-.5058.06365-.7592.09225-.4991.05688-.9989.10608-1.4995.14759-.9948.08272-1.9915.137-2.9903.16283-.5089.01352-1.0176.01983-1.5262.01891-2.0245-.0016-4.04711-.11926-6.05806-.3524-.21771-.02583-.43541-.0535-.65312-.08164.16881.02168-.12269-.0166-.18173-.0249-.13838-.01938-.27675-.03952-.41513-.06043-.46447-.06965-.92618-.15544-1.38973-.23062-.56042-.09225-1.09639-.04613-1.6033.23062-.4161.2277-.75287.57686-.96539 1.00091-.21863.45202-.28367.94417-.38145 1.42987-.097786.48569-.249998 1.00828-.192342 1.5069.124075 1.0761.876372 1.9506 1.958452 2.1462 1.01798.1845 2.04148.3339 3.06776.4612 4.03144.4938 8.10424.5528 12.14834.1762.3293-.0307.6582-.0643.9866-.1005.1026-.0113.2064.0005.3038.0346.0974.034.186.0894.2592.1621s.1293.1609.164.258c.0348.0972.0473.2009.0368.3036l-.1024.9953c-.2063 2.0114-.4126 4.0226-.619 6.0336-.2152 2.1119-.4319 4.2236-.6499 6.3352-.0615.5947-.123 1.1893-.1845 1.7837-.059.5853-.0673 1.1891-.1785 1.7675-.1752.9096-.791 1.4681-1.6895 1.6725-.8232.1873-1.6641.2856-2.5083.2933-.9359.0051-1.8713-.0364-2.8071-.0314-.9991.0056-2.22278-.0867-2.99399-.8302-.67757-.6531-.7712-1.6757-.86345-2.5599-.123-1.1707-.24492-2.3412-.36577-3.5115l-.67803-6.5077-.43865-4.2108c-.00738-.0696-.01476-.1383-.02168-.2084-.05258-.5023-.4082-.994-.96862-.9687-.47969.0213-1.02489.429-.96861.9687l.32517 3.1217.6725 6.4574c.19157 1.8343.38268 3.6688.57333 5.5036.0369.3515.07149.7039.11024 1.0554.21079 1.9206 1.67755 2.9556 3.49395 3.2472 1.06087.1706 2.14761.2057 3.22411.2232 1.3801.0221 2.7739.0752 4.1314-.1748 2.0115-.369 3.5207-1.7122 3.7361-3.7956.0615-.6015.123-1.2031.1845-1.8049.2045-1.9901.4087-3.9804.6125-5.9708l.667-6.5036.3058-2.9806c.0152-.1478.0777-.2867.178-.3963s.2333-.1839.3792-.2121c.5752-.1121 1.125-.3035 1.5341-.7412.6513-.6969.7809-1.6056.5507-2.52164zm-21.63662.64298c.00877-.00415-.00738.07106-.01429.10606-.00139-.053.00138-.10006.01429-.10606zm.05582.43176c.00461-.0033.01844.0152.03274.0373-.02168-.0203-.03551-.0355-.03321-.0373zm.05488.0724c.01984.0337.03045.0549 0 0zm.11024.0895h.00277c0 .0032.00507.0064.00692.0097-.00306-.0036-.00646-.0068-.01015-.0097zm19.30408-.1338c-.2066.1965-.5179.2878-.8256.3335-3.4501.512-6.9505.7712-10.4385.6568-2.49625-.0853-4.96623-.3625-7.43759-.7117-.24216-.0341-.5046-.0784-.67111-.2569-.31365-.3367-.1596-1.01476-.07796-1.42158.07473-.37269.21771-.86945.66097-.9225.69187-.08117 1.49537.2108 2.17986.31458.82409.12576 1.65126.22647 2.48151.30211 3.54332.32288 7.14612.2726 10.67372-.19972.643-.0864 1.2836-.1868 1.922-.30119.5687-.10194 1.1993-.29335 1.5429.29566.2357.40128.2671.93817.2306 1.39158-.0112.19756-.0975.38336-.2412.51936z" fill="#000"/></svg>