<?xml version="1.0" encoding="UTF-8" standalone="no"?>
<!DOCTYPE svg PUBLIC "-//W3C//DTD SVG 1.1//EN" "http://www.w3.org/Graphics/SVG/1.1/DTD/svg11.dtd">
<svg width="100%" height="100%" viewBox="0 0 122 122" version="1.1" xmlns="http://www.w3.org/2000/svg" xmlns:xlink="http://www.w3.org/1999/xlink" xml:space="preserve" xmlns:serif="http://www.serif.com/" style="fill-rule:evenodd;clip-rule:evenodd;stroke-linecap:round;stroke-linejoin:round;stroke-miterlimit:1.5;">
    <g transform="matrix(1,0,0,1,-718.614,-425.749)">
        <g transform="matrix(1,0,0,1,11.8811,-5.76011)">
            <rect x="706.732" y="431.509" width="121.443" height="121.443" style="fill:white;"/>
        </g>
        <g id="Logo" transform="matrix(0.200054,0,0,0.200054,508.823,332.015)">
            <g>
                <g transform="matrix(0.995946,0.0899565,-0.0212946,0.235761,0.638036,749.19)">
                    <path d="M1760.26,1104.65C1760.26,1085.57 1744.77,1070.09 1725.69,1070.09L1169.35,1069.35C1147.02,1004.26 1131.72,840.267 1104.39,793.214C919.288,474.529 862.219,619.772 897.703,1068.99C878.627,1068.99 703.54,1076.42 693.521,1079.68C646.379,1095.02 661.294,1151.3 697.447,1166.76C710.528,1172.35 802.51,1190.75 821.586,1190.75L1725.69,1208.34C1744.77,1208.34 1760.26,1192.85 1760.26,1173.78L1760.26,1104.65Z" style="fill:rgb(137,145,144);"/>
                </g>
                <g transform="matrix(0.964483,0.264147,-0.264147,0.964483,-652.352,-496.282)">
                    <path d="M1897.26,1069.55C1898.38,1073.86 1873.81,1050.95 1878.66,1050.95C1884.36,1050.95 1979.25,966.409 1991.71,965.134C2000.65,964.221 2048.22,1029.38 2043.54,1033.38C2038.1,1038.04 1895.05,1061.08 1897.26,1069.55Z" style="fill:rgb(235,235,235);fill-opacity:0.34;"/>
                </g>
                <g transform="matrix(1,0,0,1,-704.396,8.94561)">
                    <g transform="matrix(0.885448,0.184758,-0.184758,0.885448,414.623,-225.851)">
                        <path d="M1877.49,1050.86C1881.8,1049.73 1858.89,1074.3 1858.89,1069.45C1858.89,1063.76 1774.35,968.859 1773.08,956.401C1772.16,947.467 1837.32,899.893 1841.33,904.575C1845.98,910.011 1869.02,1053.06 1877.49,1050.86Z" style="fill:rgb(235,235,235);fill-opacity:0.34;"/>
                    </g>
                    <g transform="matrix(0.885448,0.184758,-0.184758,0.885448,414.623,-225.851)">
                        <path d="M1858.8,1070.63C1857.67,1066.31 1882.24,1089.22 1877.39,1089.22C1871.7,1089.22 1776.8,1173.76 1764.34,1175.04C1755.41,1175.95 1707.84,1110.8 1712.52,1106.79C1717.95,1102.14 1861.01,1079.09 1858.8,1070.63Z" style="fill:rgb(235,235,235);fill-opacity:0.34;"/>
                    </g>
                    <path d="M1917.41,1128.55C1920.03,1129.98 1910.14,1131.16 1917.41,1128.55C1929.34,1124.27 1955.18,1044.39 1905.84,1048.2C1890.52,1049.38 1889.78,1047.67 1871.21,1052.08C1824.38,1063.21 1851.07,1092.26 1917.41,1128.55Z" style="fill:rgb(0,23,20);stroke:black;stroke-width:10.41px;"/>
                    <g transform="matrix(0.978916,0.204262,-0.204262,0.978916,259.957,-362.498)">
                        <path d="M1897.26,1069.55C1898.38,1073.86 1873.81,1050.95 1878.66,1050.95C1884.36,1050.95 1979.25,966.409 1991.71,965.134C2000.65,964.221 2048.22,1029.38 2043.54,1033.38C2038.1,1038.04 1895.05,1061.08 1897.26,1069.55Z" style="fill:rgb(235,235,235);fill-opacity:0.34;"/>
                    </g>
                    <g transform="matrix(0.978916,0.204262,-0.204262,0.978916,259.957,-362.498)">
                        <path d="M1878.57,1089.32C1874.25,1090.44 1897.16,1065.87 1897.16,1070.72C1897.16,1076.41 1981.71,1171.31 1982.98,1183.77C1983.89,1192.7 1918.74,1240.28 1914.73,1235.6C1910.08,1230.16 1887.03,1087.11 1878.57,1089.32Z" style="fill:rgb(235,235,235);fill-opacity:0.34;"/>
                    </g>
                </g>
                <g transform="matrix(0.989472,0.144724,-0.144724,0.989472,123.137,-161.652)">
                    <path d="M2943.14,900.561C2948.78,880.718 2822.9,873.476 2770.23,881C2737.65,885.655 2668.39,881.85 2651.93,846.828C2635.59,812.071 2604.76,580.752 2561.23,472.115C2545.5,432.833 2526.37,413.524 2508.11,419.803C2459.5,436.514 2438.61,716.839 2426.3,716.839C2365.39,778.994 2268.08,814.163 2150.47,834.287L1308.24,837.691C1260.94,845.158 1210.11,878.681 1208.09,924.716C1156.78,963.97 1130.82,997.025 1123.5,1025.52C1122.16,1033.74 1122.04,1041.72 1125.29,1049.02C1132.66,1091.61 1249.17,1138.65 1299.77,1138.65L2278.31,1145.62C2328.92,1145.62 2740.25,977.897 2742.97,957.155C2759.88,944.824 2768.59,926.211 2781.45,925.185C2803.44,923.43 2945.1,920.531 2943.14,900.561Z" style="fill:rgb(105,113,112);"/>
                </g>
                <g transform="matrix(1.04941,0,0,1.04941,-94.8102,-80.0865)">
                    <g transform="matrix(0.389434,0.0165965,-0.0157204,0.368876,946.28,451.738)">
                        <path d="M1121.4,907.09C1121.4,907.09 866.039,1193.69 866.039,1316.51C866.039,1465.3 975.51,1443.28 1116.45,1443.28C1257.38,1443.28 1376.76,1465.3 1376.76,1316.51C1376.76,1193.69 1121.4,907.09 1121.4,907.09Z" style="fill:rgb(128,128,128);stroke:rgb(87,87,87);stroke-width:20.91px;stroke-miterlimit:0;"/>
                    </g>
                    <g transform="matrix(0.50154,0.0401203,-0.029223,0.365313,810.347,453.02)">
                        <path d="M1170.07,1159.81C1240.87,1159.81 1298.36,1235.53 1298.36,1328.8C1298.36,1422.06 1251.38,1374.91 1180.57,1374.91C1109.77,1374.91 1041.78,1422.06 1041.78,1328.8C1041.78,1235.53 1099.26,1159.81 1170.07,1159.81Z" style="fill:rgb(194,194,194);"/>
                    </g>
                    <g transform="matrix(0.362665,0.0527398,-0.0527398,0.362665,1025.15,439.047)">
                        <path d="M1096.59,1120.03C1227.72,1120.03 1281.17,1092.22 1295.38,1097.37C1304.07,1100.51 1315.35,1114.99 1326.11,1135.4C1345.15,1171.53 917.92,1188.38 895.758,1150.29C888.768,1138.28 904.773,1121.02 916.327,1098.53C922.78,1085.98 965.454,1120.03 1096.59,1120.03Z" style="fill:rgb(116,116,116);fill-opacity:0.34;"/>
                    </g>
                    <g transform="matrix(0.233137,-0.282763,0.282763,0.233137,807.399,1028.53)">
                        <g id="Right-Hand" serif:id="Right Hand" transform="matrix(-1.67529,0,0,1.67529,2659.46,-817.451)">
                            <path d="M825.759,1209.49C757.842,1156.37 648.147,1177.62 684.727,1266.1C698.917,1300.43 747.791,1325.12 777.419,1298.37C797.79,1279.97 813.443,1233.62 825.759,1209.49Z" style="fill:rgb(128,128,128);stroke:rgb(87,87,87);stroke-width:12.93px;"/>
                        </g>
                        <g transform="matrix(0.434858,0.256664,-0.240795,0.407972,1198.79,619.291)">
                            <path d="M1052.78,1087.18C1183.92,1087.18 1146.31,765.28 1156.69,771.366C1171.76,780.199 1233.81,913.587 1204.24,989.194C1195.16,1012.43 1187.85,1053.64 1161.43,1089.88C1133.22,1128.57 1087.77,1162.36 1055.08,1159.12C966.374,1150.33 962.162,1132.2 916.787,1107.39C868.828,1081.17 783.399,1016.45 747.655,986.198C723.618,965.855 921.65,1087.18 1052.78,1087.18Z" style="fill:rgb(116,116,116);fill-opacity:0.34;"/>
                        </g>
                    </g>
                    <g transform="matrix(0.36648,0,0,0.36648,967.746,495.927)">
                        <g id="Left-Hand" serif:id="Left Hand" transform="matrix(1.67529,0,0,1.67529,-493.393,-816.455)">
                            <path d="M825.759,1209.49C757.842,1156.37 648.147,1177.62 684.727,1266.1C698.917,1300.43 747.791,1325.12 777.419,1298.37C797.79,1279.97 813.443,1233.62 825.759,1209.49Z" style="fill:rgb(128,128,128);stroke:rgb(87,87,87);stroke-width:12.93px;"/>
                        </g>
                        <g transform="matrix(-0.434858,0.256664,0.240795,0.407972,967.095,619.012)">
                            <path d="M1052.78,1087.18C1183.92,1087.18 1145.71,765.752 1154.79,773.865C1177.08,793.783 1227.21,915.797 1204.24,989.194C1196.77,1013.07 1185.46,1051.8 1161.43,1089.88C1132.14,1136.3 1077.79,1165.37 1045.14,1161.75C983.768,1154.95 960.013,1138.61 916.776,1109.78C871.635,1079.69 783.399,1016.45 747.655,986.198C723.618,965.855 921.65,1087.18 1052.78,1087.18Z" style="fill:rgb(116,116,116);fill-opacity:0.34;"/>
                        </g>
                    </g>
                    <g transform="matrix(0.36637,0.00897328,-0.00897328,0.36637,989.015,470.261)">
                        <g transform="matrix(1,0,0,1,-47.175,-55.1141)">
                            <path d="M768.071,491.712C889.553,456.274 981.227,522.77 1008.48,625.409C1021.2,673.33 1072.38,710.563 1072.38,763.776C1072.38,912.392 950.162,1011.53 803.112,1033.05C669.018,1052.67 563.95,942.757 545.843,819.922C544.549,811.14 531.25,846.918 528.857,838.308C522.472,815.335 524.262,785.462 525.347,760.489C526.392,736.449 544.772,677.764 542.01,670.096C536.49,654.767 513.664,697.55 519.102,680.176C527.164,654.42 557.396,629.73 574.858,608.873C601.017,577.626 633.969,564.913 662.36,546.479C679.368,535.436 599.664,561.059 616.295,549.195C660.022,518.002 733.47,510.432 788.778,504.814C806.59,503.005 749.709,497.069 768.071,491.712Z" style="fill:rgb(128,128,128);stroke:rgb(87,87,87);stroke-width:21.66px;stroke-miterlimit:0;"/>
                        </g>
                        <g transform="matrix(1,0,0,1,633.605,0.459781)">
                            <path d="M776.627,488.89C815.758,485.311 879.452,491.584 915.823,506.773C926.135,511.079 887.997,512.413 897.347,517.969C946.352,547.087 1034.77,590 1069.38,643.72C1077.95,657.02 1044.64,642.146 1051.23,655.214C1064.72,681.952 1072.38,738.44 1072.38,763.776C1072.38,795.279 1077.83,841.589 1067.87,869.696C1061.72,887.047 1056.5,835.498 1046.27,850.938C1018.74,892.501 1009.15,950.543 963.084,987.37C923.208,1019.25 851.058,1045.32 805.031,1045.39C786.93,1045.42 768.265,1044.74 751.978,1041.66C627.351,1018.09 533.839,895.215 533.839,763.776C533.839,700.245 570.276,645.381 608.751,600.652C622.835,584.28 637.299,563.165 648.321,549.03C680.174,508.182 725.092,493.604 776.627,488.89Z" style="fill:rgb(128,128,128);stroke:rgb(87,87,87);stroke-width:21.66px;stroke-miterlimit:0;"/>
                        </g>
                        <g transform="matrix(1.05736,0,0,1.05736,-171.676,-215.481)">
                            <circle cx="860.53" cy="887.972" r="166.111" style="fill:rgb(195,195,195);stroke:rgb(143,143,143);stroke-width:51.22px;stroke-miterlimit:0;"/>
                        </g>
                        <g transform="matrix(1.05736,0,0,1.05736,535.961,-146.469)">
                            <circle cx="860.53" cy="887.972" r="166.111" style="fill:rgb(195,195,195);stroke:rgb(143,143,143);stroke-width:51.22px;stroke-miterlimit:0;"/>
                        </g>
                        <g transform="matrix(0.99785,0.0655432,-0.0655432,0.99785,58.6304,-68.2866)">
                            <g transform="matrix(1.78906,0,0,1.78906,-456.267,-729.25)">
                                <path d="M860.53,721.861C899.185,724.057 932.797,731.025 956.265,747.981C996.127,776.781 1013.59,828.089 1026.64,887.972C1035.94,930.639 1052.43,991.571 1009.68,1022.48C969.008,1051.89 908.041,1054.88 860.53,1054.08C741.079,1052.09 626.05,995.699 683.65,872.031C712.774,809.501 741.052,756.721 786.735,733.312C807.272,722.788 831.227,720.195 860.53,721.861Z" style="fill:rgb(152,152,154);stroke:rgb(112,112,112);stroke-width:12.11px;stroke-miterlimit:0;"/>
                            </g>
                            <g transform="matrix(1,0,0,1,12.0661,-8.28261)">
                                <g transform="matrix(0.992979,0.118287,-0.118287,0.992979,113.251,-159.304)">
                                    <path d="M1046.37,1090.65C1066.26,1071.62 1087.86,1073.91 1109.48,1087.75" style="fill:rgb(211,179,177);"/>
                                    <path d="M1053.86,1098.48C1049.54,1102.61 1042.68,1102.46 1038.54,1098.14C1034.41,1093.82 1034.56,1086.96 1038.88,1082.83C1062.99,1059.77 1089.12,1061.86 1115.32,1078.63C1120.35,1081.85 1121.82,1088.56 1118.6,1093.59C1115.38,1098.62 1108.67,1100.1 1103.64,1096.87C1086.59,1085.96 1069.54,1083.47 1053.86,1098.48Z" style="fill:rgb(211,179,177);"/>
                                </g>
                                <g transform="matrix(0.992979,0.118287,-0.118287,0.992979,113.251,-159.304)">
                                    <path d="M1067.86,1003.86C1068.46,997.911 1073.77,993.562 1079.71,994.153C1085.66,994.745 1090.01,1000.06 1089.42,1006C1086.25,1037.87 1058.59,1061.78 1026.94,1069.3C995.07,1076.87 960.104,1067.85 943.425,1036.46C940.62,1031.18 942.629,1024.62 947.908,1021.82C953.187,1019.01 959.75,1021.02 962.555,1026.3C974.319,1048.44 999.453,1053.57 1021.94,1048.22C1044.65,1042.82 1065.59,1026.74 1067.86,1003.86Z" style="fill:rgb(106,106,106);"/>
                                </g>
                                <g transform="matrix(0.992979,0.118287,-0.118287,0.992979,113.251,-159.304)">
                                    <path d="M1069.34,1012.71C1066.01,1007.75 1067.33,1001.01 1072.29,997.676C1077.25,994.339 1083.98,995.657 1087.32,1000.62C1094.75,1011.67 1101.2,1021.15 1111.88,1029.68C1123.37,1038.87 1136.01,1044.99 1149.26,1044.28C1162.58,1043.56 1176.02,1035.8 1189.41,1019.03C1193.14,1014.36 1199.96,1013.6 1204.63,1017.33C1209.3,1021.07 1210.07,1027.89 1206.33,1032.56C1187.95,1055.57 1168.7,1064.92 1150.43,1065.91C1132.09,1066.9 1114.26,1059.31 1098.36,1046.61C1085.83,1036.6 1078.06,1025.66 1069.34,1012.71Z" style="fill:rgb(106,106,106);"/>
                                </g>
                                <g transform="matrix(0.992979,0.118287,-0.118287,0.992979,113.251,-159.304)">
                                    <path d="M1005.1,1065.87C1002.07,1060.72 1003.79,1054.08 1008.94,1051.05C1014.1,1048.02 1020.74,1049.74 1023.77,1054.89C1048.38,1096.76 1108.17,1100.77 1130.35,1055.63C1132.98,1050.26 1139.48,1048.05 1144.85,1050.68C1150.21,1053.32 1152.43,1059.82 1149.79,1065.18C1119.68,1126.46 1038.51,1122.71 1005.1,1065.87Z" style="fill:rgb(106,106,106);"/>
                                </g>
                                <g transform="matrix(1.40259,0.0889727,-0.0633073,0.997994,-406.984,-132.023)">
                                    <path d="M1139.92,904.319C1139.92,873.098 1121.88,847.751 1099.67,847.751L1090.72,847.751C1068.51,847.751 1050.47,873.098 1050.47,904.319L1050.47,946.042C1050.47,977.263 1068.51,1002.61 1090.72,1002.61L1099.67,1002.61C1121.88,1002.61 1139.92,977.263 1139.92,946.042L1139.92,904.319Z"/>
                                </g>
                            </g>
                            <g>
                                <g transform="matrix(1.4166,0.17095,-0.187318,1.55224,-296.33,-493.77)">
                                    <path d="M1000.96,734.044C997.5,706.219 980.192,685.038 959.387,685.038C936.098,685.038 917.191,711.577 917.191,744.267C917.191,754.664 919.141,764.877 922.844,773.881L941.952,773.881C937.426,769.639 934.129,764.255 932.688,758.089C928.527,740.286 941.404,722.668 961.427,718.77C977.406,715.659 993.137,722.22 1000.96,734.044Z" style="fill:white;"/>
                                </g>
                                <g transform="matrix(0.936029,-0.0845441,0.0845441,0.936029,-85.6383,170.331)">
                                    <path d="M970.322,833.53C965.074,825.194 962.048,815.39 962.048,804.903C962.048,774.62 987.283,750.034 1018.37,750.034C1043.17,750.034 1064.25,765.691 1071.76,787.405C1071.22,792.939 1070.35,798.565 1069.14,804.236C1065.63,820.674 1059.45,836.248 1051.19,849.481C1050.71,849.818 1050.22,850.148 1049.73,850.47L970.322,833.53Z"/>
                                </g>
                                <g transform="matrix(1,-2.77556e-17,2.77556e-17,1,-276.569,-12.1703)">
                                    <ellipse cx="1207.2" cy="820.829" rx="7.392" ry="7.19" style="fill:white;"/>
                                </g>
                            </g>
                            <g transform="matrix(-0.981329,-0.192336,-0.192336,0.981329,2316.78,217.657)">
                                <g transform="matrix(1.4166,0.17095,-0.187318,1.55224,-296.33,-493.77)">
                                    <path d="M1000.96,734.044C997.5,706.219 980.192,685.038 959.387,685.038C936.098,685.038 917.191,711.577 917.191,744.267C917.191,754.664 919.141,764.877 922.844,773.881L941.952,773.881C937.426,769.639 934.129,764.255 932.688,758.089C928.527,740.286 941.404,722.668 961.427,718.77C977.406,715.659 993.137,722.22 1000.96,734.044Z" style="fill:white;"/>
                                </g>
                                <g transform="matrix(0.936029,-0.0845441,0.0845441,0.936029,-85.6383,170.331)">
                                    <path d="M970.322,833.53C965.074,825.194 962.048,815.39 962.048,804.903C962.048,774.62 987.283,750.034 1018.37,750.034C1043.17,750.034 1064.25,765.691 1071.76,787.405C1071.22,792.939 1070.35,798.565 1069.14,804.236C1065.63,820.674 1059.45,836.248 1051.19,849.481C1050.71,849.818 1050.22,850.148 1049.73,850.47L970.322,833.53Z"/>
                                </g>
                                <g transform="matrix(-0.981329,-0.192336,-0.192336,0.981329,2290.29,233.391)">
                                    <ellipse cx="1207.2" cy="820.829" rx="7.392" ry="7.19" style="fill:white;"/>
                                </g>
                            </g>
                        </g>
                        <g transform="matrix(0.441012,0.245939,-0.230734,0.413746,405.335,174.204)">
                            <path d="M1096.59,1120.03C1227.72,1120.03 1293.91,1064.27 1297.55,1075.74C1301.9,1089.43 1304.99,1114.97 1334.14,1129.53C1353.07,1138.99 1180.7,1204.33 1099.31,1196.01C1010.63,1186.93 937.546,1148.83 892.172,1124.02C844.212,1097.8 772.984,1022.59 747.655,986.198C723.618,965.855 965.454,1120.03 1096.59,1120.03Z" style="fill:rgb(116,116,116);fill-opacity:0.34;"/>
                        </g>
                        <g transform="matrix(-0.485118,0.140137,0.131473,0.455125,1895.47,332.097)">
                            <path d="M1104.99,1113.39C1235.62,1125.56 1308.77,1057.33 1312.42,1068.8C1316.77,1082.5 1322.65,1105.98 1334.14,1129.53C1343.79,1149.31 1147.11,1195.98 1069.52,1172.54C1033.67,1161.71 961.793,1161.3 897.811,1118.34C867.934,1098.28 795.45,1024.92 753.561,965.087C734.052,937.22 705.749,913.041 696.637,903.792C725.169,913.897 756.753,937.016 778.823,956.874C846.432,1017.71 910.638,1095.27 1104.99,1113.39Z" style="fill:rgb(116,116,116);fill-opacity:0.34;"/>
                        </g>
                        <g transform="matrix(-0.485118,0.140137,0.131473,0.455125,1609.58,529.325)">
                            <path d="M1121.61,978.768C1163.66,970.407 1230.13,956.883 1298.83,937.582C1440.75,897.714 1703.38,750.38 1705.84,758.107C1707.97,764.821 1639.38,820.344 1575.37,862.069C1506.14,907.205 1475.52,918.309 1445.37,932.443C1419.46,944.592 1450.4,933.95 1393.03,956.498C1352.82,972.304 1297.58,996.367 1237.04,1014.74C1186.08,1030.21 1161.05,1041.69 1102.94,1050.64C1075.89,1054.81 1032.55,1063.87 1018.72,1063.64C931.322,1062.17 890.215,1074.42 822.838,1037.83C785.386,1017.49 781.182,1014.21 741.767,973.737C718.275,949.614 705.749,913.041 696.637,903.792C725.169,913.897 717.233,952.038 852.362,987.902C946.539,1012.9 1060.02,991.016 1121.61,978.768Z" style="fill:rgb(116,116,116);fill-opacity:0.34;"/>
                        </g>
                    </g>
                    <g transform="matrix(0.992764,0.12008,-0.0879269,0.726936,-287.495,-26.6874)">
                        <path d="M1755.1,616.337C1813.11,616.337 1860.2,634.292 1860.2,656.407C1860.2,666.515 1850.37,675.753 1834.15,682.806C1816.91,690.299 1792.47,710.249 1764.97,714.381C1761.72,714.87 1758.43,715.137 1755.1,715.137C1727.86,715.137 1703.02,692.518 1684.34,686.026C1663.25,678.696 1650,668.137 1650,656.407C1650,634.292 1697.09,616.337 1755.1,616.337Z" style="fill:rgb(10,13,17);"/>
                    </g>
                    <g transform="matrix(0.992764,0.12008,-0.12008,0.992764,-307.906,-176.569)">
                        <path d="M1793.36,673.743C1830.47,673.743 1856.6,635.68 1856.6,649.585C1856.6,663.489 1830.47,708.405 1793.36,708.405C1756.26,708.405 1732.56,663.489 1732.56,649.585C1732.56,635.68 1756.26,673.743 1793.36,673.743Z" style="fill:rgb(7,8,12);"/>
                    </g>
                    <g transform="matrix(0.992764,0.12008,-0.12008,0.992764,-310.178,-193.5)">
                        <path d="M1797.65,686.53C1827.1,686.53 1849.69,669.077 1860.88,667.169C1864.19,666.605 1860.88,670.841 1860.88,670.841C1860.88,670.841 1827,690.499 1797.65,691.472C1769.96,692.39 1736.85,672.825 1736.85,672.825C1736.85,672.825 1733.45,667.39 1736.85,668.183C1747.62,670.703 1768.64,686.53 1797.65,686.53Z" style="fill:rgb(192,164,95);"/>
                    </g>
                    <g transform="matrix(0.416037,0.050322,-0.050322,0.416037,682.57,295.966)">
                        <path d="M1797.65,686.53C1827.1,686.53 1803.87,677.588 1815.07,675.68C1818.37,675.116 1860.88,670.841 1860.88,670.841C1860.88,670.841 1827,690.499 1797.65,691.472C1769.96,692.39 1736.85,672.825 1736.85,672.825C1736.85,672.825 1776.39,674.562 1779.78,675.355C1790.55,677.875 1768.64,686.53 1797.65,686.53Z" style="fill:rgb(192,164,95);"/>
                    </g>
                    <g transform="matrix(0.254734,0,0,0.254734,1049.14,579.446)">
                        <g transform="matrix(0.104467,-0.0397666,0.0397666,0.104467,798.361,477.742)">
                            <g transform="matrix(1.52333,0.611343,-0.447456,1.11496,74.1992,-882.132)">
                                <path d="M1105.31,1214.18C1057.23,1436.87 1030.8,1667 1130.39,2002.47L917.338,2199.76C835.078,1759.47 934.542,1423.83 1105.31,1214.18Z" style="fill:rgb(255,204,219);"/>
                            </g>
                            <g transform="matrix(1.52333,0.611343,-0.447456,1.11496,74.1992,-882.132)">
                                <path d="M1042.97,1345.33C1054.49,1378.45 905.619,1429.17 938.232,2180.2L917.338,2199.76C837.193,1825.47 922.239,1446.78 1042.97,1345.33Z" style="fill:rgb(251,171,196);fill-opacity:0.31;"/>
                            </g>
                            <g transform="matrix(-1.6443,-0.0911429,-0.0727716,1.31287,3561.87,-502.059)">
                                <path d="M1130.11,1293.77C1042.86,1537.64 1061.21,1942.44 1199.82,2252.01L909.015,2102.2C823.419,1629.78 956.6,1477.2 1130.11,1293.77Z" style="fill:rgb(255,204,219);"/>
                            </g>
                            <g transform="matrix(-1.6443,-0.0911429,-0.0727716,1.31287,3561.87,-502.059)">
                                <path d="M1130.11,1293.77C1053.74,1426.27 847.393,1573.52 952.241,2123.63L909.015,2102.2C823.419,1629.78 956.6,1477.2 1130.11,1293.77Z" style="fill:rgb(251,171,196);fill-opacity:0.16;"/>
                            </g>
                            <g transform="matrix(1,0,0,1,0,-10)">
                                <path d="M1659.69,804.405C1659.69,763.496 1544.67,754.385 1503.76,754.385L1291.37,754.85C1250.46,754.85 1146.05,760.062 1146.05,800.97L1140.8,1247.5C1140.8,1288.41 1222.12,1285 1263.03,1285C1351.27,1288.66 1438.43,1288.64 1524.54,1285C1565.45,1285 1657.92,1288.41 1657.92,1247.5L1659.69,804.405Z" style="fill:rgb(255,204,219);"/>
                            </g>
                            <g transform="matrix(0.0843943,0.996432,-1.49267,0.126424,3173.25,933.737)">
                                <path d="M129.091,1361.55C109.059,1337.47 153.095,1413.05 165.081,1588.48C166.514,1609.45 75.477,1935.67 75.477,2052.22C75.477,2082.13 113.228,2114.74 162.626,2106.95C186.176,2103.23 201.97,2088.84 212.316,2074.72C220.185,2063.97 226.43,2041.31 230.728,2028.34C303.386,1808.99 266.889,1608.74 177.025,1480.87C136.778,1423.61 145.289,1358.54 129.091,1361.55Z" style="fill:rgb(251,171,196);"/>
                            </g>
                            <g transform="matrix(1,0,0,1,11,0)">
                                <path d="M1134.8,794.819C1049.85,649.011 562.759,410.118 408.337,385.136C290.263,366.034 301.684,370.499 215.594,385.136C70.758,409.762 69.52,502.763 69.52,649.678L31,1336.66C36.23,1375.41 -1.091,1268.61 145.824,1268.61C308.809,1260.54 516.51,1277.43 737.743,1301.87C840.865,1301.87 922.099,1289.39 1014.5,1253.24C1053.75,1237.89 1095,1218.28 1140.8,1193.53L1134.8,794.819Z" style="fill:rgb(255,204,219);"/>
                            </g>
                            <g transform="matrix(-0.0843943,0.996432,1.49267,0.126424,-355.639,931.737)">
                                <path d="M92.209,1353.56C72.177,1329.49 153.095,1413.05 165.081,1588.48C166.514,1609.45 75.477,1935.67 75.477,2052.22C75.477,2082.13 113.228,2114.74 162.626,2106.95C186.176,2103.23 200.702,2092.39 211.048,2078.27C218.917,2067.53 226.43,2041.31 230.728,2028.34C303.386,1808.99 226.708,1546.93 177.025,1480.87C134.508,1424.34 108.406,1350.56 92.209,1353.56Z" style="fill:rgb(251,171,196);"/>
                            </g>
                            <g transform="matrix(-1,0,0,1,2812,0)">
                                <path d="M1160.79,817.041C1075.84,671.233 562.759,410.118 408.337,385.136C290.263,366.034 301.684,370.499 215.594,385.136C70.758,409.762 69.52,502.763 69.52,649.678L31,1336.66C36.23,1375.41 -1.091,1268.61 145.824,1268.61C308.809,1260.54 516.51,1277.43 737.743,1301.87C884.657,1301.87 1007.13,1274.08 1160.79,1191.07L1160.79,817.041Z" style="fill:rgb(255,204,219);"/>
                            </g>
                            <g transform="matrix(-1,0,0,1,2812,0)">
                                <path d="M1160.79,817.041C1075.84,671.233 562.759,410.118 408.337,385.136C290.263,366.034 301.684,370.499 215.594,385.136C70.758,409.762 69.52,502.763 69.52,649.678L31,1336.66C36.23,1375.41 -1.091,1268.61 145.824,1268.61C308.809,1260.54 516.51,1277.43 737.743,1301.87C884.657,1301.87 1007.13,1274.08 1160.79,1191.07L1160.79,817.041Z" style="fill:rgb(255,204,219);"/>
                            </g>
                            <g transform="matrix(0.689088,0,0,1.05993,513.38,-73.6493)">
                                <path d="M1733.8,779.886C1733.8,772.639 1663.52,822.958 1663.52,830.205C1642.41,954.028 1643.12,1126.56 1656.84,1247.73C1656.84,1251.11 1651.85,1208.59 1692.51,1213.42C1738.95,1218.94 1832.03,1271.67 1835.93,1272.39C1651.15,1214.99 1706.36,863.013 1733.8,779.886Z" style="fill:rgb(197,142,161);fill-opacity:0.17;"/>
                            </g>
                            <g transform="matrix(-0.689088,0,0,1.05993,2293.46,-81.6493)">
                                <path d="M1734.95,773.923C1734.95,766.676 1663.52,822.958 1663.52,830.205C1663.52,955.898 1659.33,1169.21 1656.76,1236.47C1656.35,1247.14 1661.02,1254.71 1672.72,1252.78C1682.86,1251.11 1689.25,1256.08 1711.2,1260.53C1790.23,1276.56 1922.63,1299.75 1893.8,1298.45C1631.51,1216.85 1710.08,926.32 1734.95,773.923Z" style="fill:rgb(197,142,161);fill-opacity:0.15;"/>
                            </g>
                        </g>
                        <circle cx="864.643" cy="529.102" r="13.359" style="fill:white;"/>
                        <g transform="matrix(1,0,0,1,50.3875,18.4661)">
                            <circle cx="864.643" cy="529.102" r="13.359" style="fill:white;"/>
                        </g>
                        <g transform="matrix(1,0,0,1,172.673,-42.2071)">
                            <circle cx="864.643" cy="529.102" r="13.359" style="fill:white;"/>
                        </g>
                        <g transform="matrix(1,0,0,1,232.657,-28.8484)">
                            <circle cx="864.643" cy="529.102" r="13.359" style="fill:white;"/>
                        </g>
                        <g transform="matrix(1,0,0,1,219.298,-101.624)">
                            <path d="M857.013,518.137C859.805,517.308 863.478,516.645 867.478,516.045C868.369,514.975 879.161,521.309 878.001,529.102C876.916,536.394 872.016,542.46 864.643,542.46C857.27,542.46 851.992,536.44 851.284,529.102C850.844,524.545 856.38,518.11 857.013,518.137Z" style="fill:white;"/>
                        </g>
                        <g transform="matrix(1,0,0,1,32.1687,66.1843)">
                            <path d="M861.005,519.463C867.909,516.873 876.929,522.909 876.929,522.909L864.429,526.615L851.361,530.822C851.361,530.822 854.068,522.065 861.005,519.463Z" style="fill:white;"/>
                        </g>
                        <g transform="matrix(1,0,0,1,188.86,48.5435)">
                            <circle cx="864.643" cy="529.102" r="13.359" style="fill:white;"/>
                        </g>
                        <g transform="matrix(1,0,0,1,188.86,110.324)">
                            <path d="M864.643,515.743C872.016,515.743 878.001,521.729 878.001,529.102C878.001,531.04 876.844,534.545 876.844,534.545L868.223,541.974C868.223,541.974 865.883,542.46 864.643,542.46C860.997,542.46 857.69,540.997 855.279,538.625C854.933,538.285 854.298,537.551 854.298,537.551C854.87,531.438 855.125,525.507 855.142,519.714C855.142,519.714 855.979,518.92 856.434,518.565C858.699,516.797 861.549,515.743 864.643,515.743Z" style="fill:white;"/>
                        </g>
                        <g transform="matrix(1,0,0,1,82.3188,113.558)">
                            <circle cx="864.643" cy="529.102" r="13.359" style="fill:white;"/>
                        </g>
                    </g>
                </g>
            </g>
            <g transform="matrix(1.08819,0,0,1.08819,-71.5474,-42.5569)">
                <path d="M1375.57,899.751L1255.48,895.893L1240.86,933.088L1390,957.982L1375.57,899.751Z" style="fill:rgb(49,49,49);"/>
            </g>
            <g transform="matrix(1.08819,0,0,1.08819,-122.692,-48.3241)">
                <path d="M1305.12,901.193L1229.52,896.907L1202.2,922.331L1287.36,937.74L1305.12,901.193Z" style="fill:rgb(49,49,49);"/>
            </g>
        </g>
    </g>
</svg>
